<svg id="Layer_1" data-name="Layer 1" xmlns="http://www.w3.org/2000/svg" xmlns:xlink="http://www.w3.org/1999/xlink" viewBox="0 0 1047.54 611.24"><defs><style>.cls-1{fill:url(#radial-gradient);}.cls-2{fill:#009245;}</style><radialGradient id="radial-gradient" cx="463.22" cy="451.56" fx="107.06976866459513" fy="687.8243321073312" r="427.39" gradientUnits="userSpaceOnUse"><stop offset="0.23" stop-color="#1e9cd7"/><stop offset="0.87" stop-color="#0075be"/></radialGradient></defs><path class="cls-1" d="M1043.55,346.81c-114.83-75.05-234.08-151.87-369.48-173.9-85.66-13.94-176.28-5.62-256.41-39-7.37-3.07-14.88-6.54-22.87-6.62-8.39-.09-16.32,3.57-24,7.07a1144.75,1144.75,0,0,1-265,84.36c-9.82,1.85-19.94,3.68-28.43,9-17.33,10.83-23.35,33-25.92,53.27-8.22,64.84,4.34,131,26.68,192.39s54.2,118.85,85.93,176c9.39,16.91,19.15,34.27,34.24,46.36,17.48,14,40.17,19.43,62.17,23.6,121.29,23,246.39,19.84,368.71,3.24A1702.54,1702.54,0,0,0,1047.3,610.21c20-8.23,42.56-20.19,45.81-41.56,2.3-15.07-6.15-29.46-14.27-42.36l-92.91-147.7a182.58,182.58,0,0,0,50.69-33.23" transform="translate(-47.44 -126.06)"/><path class="cls-2" d="M1044.31,345.51C971.92,298.2,898.9,250.76,819.5,215.89c-38.89-17.08-79.24-31-120.83-39.88-42.41-9-85.65-11.58-128.78-14.73-44.13-3.23-88.71-7.31-131-21.09-10.31-3.35-20.11-7.86-30.29-11.51a39.31,39.31,0,0,0-28.17,0c-10.2,3.75-20,8.85-29.92,13.2Q334.16,149,317.58,155.6a1144.86,1144.86,0,0,1-130.41,43.17q-33.43,8.88-67.38,15.73c-18.76,3.79-40.1,5.16-53.31,20.79C55.81,247.92,52,265,50,281a336.87,336.87,0,0,0-1.37,69.55c3.61,45.11,15.16,89.29,31.17,131.5,16.16,42.61,36.73,83.37,58.4,123.4,10.67,19.7,21.18,39.61,32.68,58.84,10,16.74,22.11,31.83,39.57,41.16,17.76,9.5,38,13.27,57.59,16.8q34.32,6.18,69.05,9.7a1081.85,1081.85,0,0,0,141.62,4.87c93.43-2.67,186.69-15.44,278-35a1703.28,1703.28,0,0,0,263.77-79.25c27.75-10.85,79.7-25.27,74.08-64.64-1.38-9.68-6.06-18.61-11-26.89-6.09-10.16-12.57-20.1-18.88-30.12l-39.27-62.42-38.16-60.67-.54,2.06a188.6,188.6,0,0,0,51-33.47c1.43-1.31-.7-3.42-2.12-2.12a186.46,186.46,0,0,1-50.39,33,1.52,1.52,0,0,0-.54,2.05L1061,500.67c6.19,9.83,12.46,19.61,18.54,29.5,5.84,9.48,11.81,19.92,12.45,31.3,1.09,19.57-14.85,32.45-30.59,40.66-18.74,9.77-39.27,16.75-59,24.22q-31.56,12-63.55,22.63-63.52,21.21-128.59,37.39c-87.93,21.85-177.78,37.07-268.14,44-92.4,7.15-185.92,5.07-277.21-11.8-19.68-3.63-40.05-7.73-57.36-18.3-17.64-10.78-28.84-28.11-38.78-45.73-22-39-43.66-78.29-62.73-118.78-37.56-79.75-66.64-171.32-52.21-260.4,2.8-17.27,8.67-36.58,24.38-46.39,9.27-5.79,20.41-7.36,30.94-9.37q16.29-3.1,32.46-6.69A1145.73,1145.73,0,0,0,270,176.55q31.77-11,62.85-23.94,14.58-6,29-12.5c10.33-4.62,21.31-11.33,33-11.29,10.84,0,21.2,6.25,31.1,10a302.76,302.76,0,0,0,29.87,9.46A451,451,0,0,0,516,159.33c42.7,5.2,85.77,6.3,128.51,11.08A562,562,0,0,1,767.68,198.6c79.55,27.82,152.74,70.87,223.49,116,17.29,11,34.46,22.24,51.63,33.45,1.62,1.06,3.12-1.53,1.51-2.59Z" transform="translate(-47.44 -126.06)"/><path class="cls-2" d="M1037,341.83a1.5,1.5,0,0,0,0-3,1.5,1.5,0,0,0,0,3Z" transform="translate(-47.44 -126.06)"/><path class="cls-2" d="M1037,341.83a1.5,1.5,0,0,0,0-3,1.5,1.5,0,0,0,0,3Z" transform="translate(-47.44 -126.06)"/><path class="cls-2" d="M545,725.83a1.5,1.5,0,0,0,0-3,1.5,1.5,0,0,0,0,3Z" transform="translate(-47.44 -126.06)"/><path class="cls-2" d="M579.67,720.5a1.5,1.5,0,0,0,0-3,1.5,1.5,0,0,0,0,3Z" transform="translate(-47.44 -126.06)"/><path class="cls-2" d="M579.67,720.5a1.5,1.5,0,0,0,0-3,1.5,1.5,0,0,0,0,3Z" transform="translate(-47.44 -126.06)"/><path class="cls-2" d="M227.67,185.83a1.5,1.5,0,0,0,0-3,1.5,1.5,0,0,0,0,3Z" transform="translate(-47.44 -126.06)"/><path class="cls-2" d="M227.67,185.83a1.5,1.5,0,0,0,0-3,1.5,1.5,0,0,0,0,3Z" transform="translate(-47.44 -126.06)"/><path class="cls-2" d="M133.4,309h37.09L200.1,462.64c5.46,30.32,11.07,60.65,16.53,91h1.72c6.24-30.33,13-60.81,19.83-91L277.34,309H309.9l39.16,153.64c6.8,29.85,13.59,60.49,20.38,91h1.72c5.45-30.49,10.52-61,16-91L416.75,309H451.4L393,591.21H349.81l-42.7-169.64c-4.84-22-9.37-42.54-13.58-64.27h-1.72c-4.37,21.73-9.28,42.23-14.12,64.27L235.85,591.21H193.29Z" transform="translate(-47.44 -126.06)"/><path class="cls-2" d="M500.21,309H663v30.39H536.13v95.17H643.68V465H536.13V591.21H500.21Z" transform="translate(-47.44 -126.06)"/><path class="cls-2" d="M787.23,298.39H688V263.05h240.3v35.34H829V591.21H787.23Z" transform="translate(-47.44 -126.06)"/></svg>